#!OML:ASF E:/inclinewalkrobotboard/Project1/Captureday1/Session1/subject1.ASF
:FULLY-SPECIFIED
:DEGREES
138
root 0 0 0 1.1079147678065648 -3.7403607594238113 1.8027824012144555
lowerback 11.995075448521884 0.8619733194433435 -0.0769312433353844
upperback -4.182662452038046 1.0909846133049013 -0.5396039470187628
thorax -11.297384440767283 0.5003662594024771 -0.7745945076424299
lowerneck -5.922118807374679 1.4702443423646385 4.5205594543975405
upperneck 18.041411009455516 2.915657726902279 -8.26638219882733
head 6.61600298904439 1.061805327604994 -3.1943004048542685
rclavicle -1.250550942840129E-15 4.1770727216726225E-16
rhumerus 19.64205129108783 14.047382624618358 -47.807884434144164
rradius 72.07166648733384
rwrist 27.219673668785113
rhand -34.88494047144923 -57.53256371286201
rfingers 7.125020000000043
rthumb -8.026342579693873 -87.31218123463199
lclavicle 1.0372414470360413E-15 -2.6922311921400603E-15
lhumerus 20.59973836780858 -12.312203221880209 45.61962871423036
lradius 69.5345494702488
lwrist -22.20311436544447
lhand -44.75896150785385 -70.16133219146651
lfingers 7.125020000000015
lthumb -17.56652778202451 -41.05526067035575
rfemur -25.19005050436725 -2.162473291935872 16.895613882581788
rtibia 54.19656683570236
rfoot -28.225332946576188 -16.763849338830394
rtoes -17.856335680233407
lfemur -27.441191637386062 2.481692935936482 -18.26403048126904
ltibia 53.65905847302479
lfoot -31.882803892197487 -3.252584581846794
ltoes -19.567219233996454
139
root 0 0 0 1.108028498616328 -3.7401452843357355 1.8028425376694346
lowerback 11.995272142406066 0.8620097613333229 -0.07695273548586315
upperback -4.1825884092497665 1.0910308636605708 -0.5396429175693748
thorax -11.29741613080407 0.5003882616640933 -0.7746342601408127
lowerneck -5.922304936301696 1.4701739493266746 4.52056386472035
upperneck 18.04112389029857 2.91553086221147 -8.266384371571991
head 6.615945802764196 1.0617492154277157 -3.19430979720971
rclavicle -1.2284237687249253E-15 3.9667188863428786E-16
rhumerus 19.641559967276855 14.047553597624905 -47.80807663291063
rradius 72.07069358447026
rwrist 27.218727089780575
rhand -34.883327863826 -57.528943172234364
rfingers 7.125020000000043
rthumb -8.024841814367086 -87.30846818589501
lclavicle 1.0816444258417982E-15 -2.718901716243408E-15
lhumerus 20.599165028418255 -12.313186193102544 45.61720511782376
lradius 69.5347435813791
lwrist -22.203904953135513
lhand -44.756876660638376 -70.15150819471697
lfingers 7.125020000000015
lthumb -17.56469873887795 -41.04488784285752
rfemur -25.190921475944293 -2.1624289718182994 16.896490090366473
rtibia 54.19822497641063
rfoot -28.226717060568063 -16.76442247469666
rtoes -17.855130765857545
lfemur -27.44272922319606 2.4822623423975845 -18.264881139833
ltibia 53.66144498840684
lfoot -31.885719069502887 -3.253065122211569
ltoes -19.56397605871571
140
root 0 0 0 1.107992677103906 -3.7401638482723785 1.802837187977885
lowerback 11.995299141371977 0.8620103644662634 -0.07693828215986348
upperback -4.1825482681084925 1.091035261211544 -0.5396337136419076
thorax -11.297387239982445 0.5003896896348242 -0.7746340016187835
lowerneck -5.922195886473147 1.4701448187304849 4.520601143828842
upperneck 18.04097546947408 2.9154923599608855 -8.266467416629737
head 6.61587927989922 1.0617321332592131 -3.1943448233476017
rclavicle -1.2339172795281857E-15 3.991242173234348E-16
rhumerus 19.641336246295495 14.047361102633328 -47.808175469061716
rradius 72.07054943099969
rwrist 27.218716182986064
rhand -34.8833441524052 -57.528917509170505
rfingers 7.125020000000043
rthumb -8.024846993324513 -87.30847078414764
lclavicle 1.073501642548689E-15 -2.7157064714966446E-15
lhumerus 20.599410535999777 -12.313554135407237 45.61705385582174
lradius 69.53483630787647
lwrist -22.20384810902039
lhand -44.756800098145014 -70.15036474170131
lfingers 7.125020000000015
lthumb -17.56460727547217 -41.04375263188578
rfemur -25.191180191125984 -2.162450381343793 16.896467006882062
rtibia 54.198145651030465
rfoot -28.22682178133168 -16.764542699452576
rtoes -17.85486040999662
lfemur -27.442764100785567 2.4823339655309646 -18.264949241272404
ltibia 53.66169216816522
lfoot -31.885874773617196 -3.2530062485013524
ltoes -19.563634385794558
141
root 0 0 0 1.1079545415147305 -3.7401873460593604 1.8028308176546552
lowerback 11.99532148693925 0.8620100062880433 -0.07692259544369837
upperback -4.182508789689684 1.0910386257794582 -0.5396235159073133
thorax -11.297356217252016 0.5003905752191742 -0.7746331109895079
lowerneck -5.922074914591874 1.470115190946376 4.52063889123505
upperneck 18.04082716936523 2.915453793710866 -8.266552812900677
head 6.615810779746132 1.061715123821124 -3.19438079666549
rclavicle -1.2351133846259847E-15 3.992122771480642E-16
rhumerus 19.641357043432578 14.047386914417237 -47.808178621387995
rradius 72.0705852825281
rwrist 27.218737752039196
rhand -34.88339042115784 -57.52904886664132
rfingers 7.125020000000043
rthumb -8.024895441999265 -87.30860547050032
lclavicle 1.0715857593048876E-15 -2.7156379052174614E-15
lhumerus 20.599492212576358 -12.313586288737053 45.61699780757559
lradius 69.53488033161995
lwrist -22.203872330328235
lhand -44.75682072156714 -70.15034576491051
lfingers 7.125020000000015
lthumb -17.564616972800337 -41.043730414978015
rfemur -25.191157126788994 -2.162444506986504 16.896485068991765
rtibia 54.19812257223932
rfoot -28.22690463554403 -16.764581323941925
rtoes -17.854860388847488
lfemur -27.44283133735241 2.4823198862651394 -18.264937129949544
ltibia 53.66165870572998
lfoot -31.885987253397357 -3.2529273075248724
ltoes -19.563703206827228
142
root 0 0 0 1.1079190557453533 -3.7402263631578903 1.8028186531569679
lowerback 11.995319562237322 0.8620074983266484 -0.07690721784226251
upperback -4.182488479462422 1.0910385107909175 -0.539612729620367
thorax -11.297332159280996 0.5003900301204732 -0.7746301973660682
lowerneck -5.921980198257586 1.4701007744967494 4.520663693918326
upperneck 18.040753365338954 2.9154382725347325 -8.266610158962838
head 6.615770519215329 1.0617081668971236 -3.194404256799084
rclavicle -1.234663080495758E-15 3.987277931657631E-16
rhumerus 19.64142275448309 14.047457977880255 -47.80814428593571
rradius 72.0706032949762
rwrist 27.218709021136302
rhand -34.88324106291759 -57.528827647252214
rfingers 7.125020000000043
rthumb -8.024750925439047 -87.30838236514376
lclavicle 1.0722415197896187E-15 -2.7162587833995987E-15
lhumerus 20.59951263163196 -12.313675862682933 45.61687880708143
lradius 69.5349229475375
lwrist -22.2038987034464
lhand -44.75675030644902 -70.1499358638579
lfingers 7.125020000000015
lthumb -17.564549125571382 -41.04331119052823
rfemur -25.191158718520832 -2.1624449109243837 16.896488798665843
rtibia 54.1981263838374
rfoot -28.226922920280742 -16.764580558831984
rtoes -17.85486265826784
lfemur -27.4428026028371 2.4823378726927974 -18.26493113714209
ltibia 53.661641515738175
lfoot -31.88600682346879 -3.2529106286459646
ltoes -19.563838565366787
